<svg width="60" height="60" viewBox="0 0 60 60" fill="none" xmlns="http://www.w3.org/2000/svg">
<path opacity="0.21" fill-rule="evenodd" clip-rule="evenodd" d="M0 30V37C0 49.7025 10.2975 60 23 60H30H37C49.7025 60 60 49.7025 60 37V30V23C60 10.2975 49.7025 0 37 0H30H23C10.2975 0 0 10.2975 0 23V30Z" fill="#28A745"/>
<path fill-rule="evenodd" clip-rule="evenodd" d="M16.7592 21.0113C16.6667 21.5013 16.6667 22.0897 16.6667 23.2664V32.6667C16.6667 37.6951 16.6667 40.2092 18.2288 41.7713C19.7909 43.3334 22.3051 43.3334 27.3334 43.3334H32.6667C37.6951 43.3334 40.2092 43.3334 41.7713 41.7713C43.3334 40.2092 43.3334 37.6951 43.3334 32.6667V29.7306C43.3334 26.2208 43.3334 24.4659 42.3075 23.3252C42.2131 23.2203 42.1132 23.1204 42.0083 23.026C40.8676 22.0001 39.1127 22.0001 35.6029 22.0001H35.1047C33.5664 22.0001 32.7973 22.0001 32.0806 21.7958C31.6868 21.6836 31.3073 21.5264 30.9496 21.3273C30.2983 20.965 29.7545 20.4211 28.6667 19.3334L27.9331 18.5997C27.5685 18.2352 27.3862 18.0529 27.1947 17.8941C26.3688 17.2095 25.3556 16.7898 24.2875 16.6899C24.0398 16.6667 23.782 16.6667 23.2664 16.6667C22.0897 16.6667 21.5013 16.6667 21.0113 16.7592C18.8538 17.1663 17.1663 18.8538 16.7592 21.0113ZM33.3311 29.2527C33.7439 29.6196 33.7811 30.2517 33.4142 30.6644L29.8586 34.6644C29.6688 34.8779 29.3968 35.0001 29.1112 35.0001C28.8256 35.0001 28.5536 34.8779 28.3638 34.6644L26.586 32.6644C26.2191 32.2517 26.2563 31.6196 26.6691 31.2527C27.0818 30.8858 27.7139 30.9229 28.0808 31.3357L29.1112 32.4949L31.9193 29.3357C32.2863 28.9229 32.9183 28.8858 33.3311 29.2527Z" fill="#28A745"/>
</svg>
