<svg width="60" height="60" viewBox="0 0 60 60" fill="none" xmlns="http://www.w3.org/2000/svg">
<path opacity="0.21" fill-rule="evenodd" clip-rule="evenodd" d="M0 30V37C0 49.7025 10.2975 60 23 60H30H37C49.7025 60 60 49.7025 60 37V30V23C60 10.2975 49.7025 0 37 0H30H23C10.2975 0 0 10.2975 0 23V30Z" fill="#FEC53D"/>
<path d="M43.3334 29.7306V32.6667C43.3334 37.6951 43.3334 40.2092 41.7713 41.7713C40.2092 43.3334 37.6951 43.3334 32.6668 43.3334H27.3334C22.3051 43.3334 19.7909 43.3334 18.2288 41.7713C16.9297 40.4722 16.711 38.5147 16.6742 35.0002H28.2583L25.2453 37.1914C24.7987 37.5163 24.6999 38.1417 25.0247 38.5883C25.3496 39.035 25.975 39.1337 26.4216 38.8089L31.9216 34.8089C32.1804 34.6207 32.3335 34.3201 32.3335 34.0002C32.3335 33.6802 32.1804 33.3796 31.9216 33.1914L26.4216 29.1914C25.975 28.8666 25.3496 28.9653 25.0247 29.412C24.6999 29.8586 24.7987 30.484 25.2453 30.8089L28.2583 33.0002H16.6668L16.6667 32.6667L16.6668 23.2664C16.6668 22.0897 16.6668 21.5013 16.7592 21.0113C17.1663 18.8538 18.8539 17.1663 21.0113 16.7592C21.5014 16.6667 22.0897 16.6667 23.2664 16.6667C23.782 16.6667 24.0398 16.6667 24.2875 16.6899C25.3556 16.7898 26.3688 17.2095 27.1947 17.8941C27.3863 18.0529 27.5685 18.2352 27.9331 18.5997L28.6668 19.3334C29.7545 20.4211 30.2983 20.965 30.9496 21.3273C31.3074 21.5264 31.6868 21.6836 32.0806 21.7958C32.7973 22.0001 33.5664 22.0001 35.1047 22.0001H35.6029C39.1127 22.0001 40.8676 22.0001 42.0083 23.026C42.1133 23.1204 42.2131 23.2203 42.3075 23.3252C43.3334 24.4659 43.3334 26.2208 43.3334 29.7306Z" fill="#FFB84D"/>
</svg>
