<svg width="16" height="16" viewBox="0 0 16 16" fill="none" xmlns="http://www.w3.org/2000/svg">
<path fill-rule="evenodd" clip-rule="evenodd" d="M11.3333 2.66927C10.9651 2.66927 10.6667 2.96775 10.6667 3.33594C10.6667 3.70413 10.9651 4.0026 11.3333 4.0026C11.7015 4.0026 12 3.70413 12 3.33594C12 2.96775 11.7015 2.66927 11.3333 2.66927ZM12 5.22213V5.33594C12 5.51275 11.9298 5.68232 11.8047 5.80734C11.6797 5.93237 11.5101 6.0026 11.3333 6.0026H10.3333C9.96514 6.0026 9.66667 6.30108 9.66667 6.66927C9.66667 7.03746 9.96514 7.33594 10.3333 7.33594H11.3333C11.8638 7.33594 12.3725 7.12522 12.7475 6.75015C13.1226 6.37508 13.3333 5.86637 13.3333 5.33594V3.33594C13.3333 2.23137 12.4379 1.33594 11.3333 1.33594C10.2288 1.33594 9.33333 2.23137 9.33333 3.33594C9.33333 4.44051 10.2288 5.33594 11.3333 5.33594C11.5671 5.33594 11.7915 5.29583 12 5.22213ZM4.66667 3.33594C5.03486 3.33594 5.33333 3.63441 5.33333 4.0026V10.3931L6.19526 9.5312C6.45561 9.27085 6.87772 9.27085 7.13807 9.5312C7.39842 9.79155 7.39842 10.2137 7.13807 10.474L5.13807 12.474C4.87772 12.7344 4.45561 12.7344 4.19526 12.474L2.19526 10.474C1.93491 10.2137 1.93491 9.79155 2.19526 9.5312C2.45561 9.27085 2.87772 9.27085 3.13807 9.5312L4 10.3931V4.0026C4 3.63441 4.29848 3.33594 4.66667 3.33594ZM11.3333 10.0026C11.1565 10.0026 10.987 10.0728 10.8619 10.1979C10.7369 10.3229 10.6667 10.4925 10.6667 10.6693V12.6693C10.6667 12.8461 10.7369 13.0157 10.8619 13.1407C10.987 13.2657 11.1565 13.3359 11.3333 13.3359C11.5101 13.3359 11.6797 13.2657 11.8047 13.1407C11.9298 13.0157 12 12.8461 12 12.6693V10.6693C12 10.4925 11.9298 10.3229 11.8047 10.1979C11.6797 10.0728 11.5101 10.0026 11.3333 10.0026ZM9.91912 9.25506C10.2942 8.87999 10.8029 8.66927 11.3333 8.66927C11.8638 8.66927 12.3725 8.87999 12.7475 9.25506C13.1226 9.63013 13.3333 10.1388 13.3333 10.6693V12.6693C13.3333 13.1997 13.1226 13.7084 12.7475 14.0835C12.3725 14.4586 11.8638 14.6693 11.3333 14.6693C10.8029 14.6693 10.2942 14.4586 9.91912 14.0835C9.54405 13.7084 9.33333 13.1997 9.33333 12.6693V10.6693C9.33333 10.1388 9.54405 9.63013 9.91912 9.25506Z" fill="#868E96"/>
</svg>
