<svg width="16" height="16" viewBox="0 0 16 16" fill="none" xmlns="http://www.w3.org/2000/svg">
<path fill-rule="evenodd" clip-rule="evenodd" d="M11.3333 2.66927C11.1565 2.66927 10.987 2.73951 10.8619 2.86453C10.7369 2.98956 10.6667 3.15913 10.6667 3.33594V5.33594C10.6667 5.51275 10.7369 5.68232 10.8619 5.80734C10.987 5.93237 11.1565 6.0026 11.3333 6.0026C11.5101 6.0026 11.6797 5.93237 11.8047 5.80734C11.9298 5.68232 12 5.51275 12 5.33594V3.33594C12 3.15913 11.9298 2.98956 11.8047 2.86453C11.6797 2.73951 11.5101 2.66927 11.3333 2.66927ZM9.91912 1.92172C10.2942 1.54665 10.8029 1.33594 11.3333 1.33594C11.8638 1.33594 12.3725 1.54665 12.7475 1.92172C13.1226 2.2968 13.3333 2.8055 13.3333 3.33594V5.33594C13.3333 5.86637 13.1226 6.37508 12.7475 6.75015C12.3725 7.12522 11.8638 7.33594 11.3333 7.33594C10.8029 7.33594 10.2942 7.12522 9.91912 6.75015C9.54405 6.37508 9.33333 5.86637 9.33333 5.33594V3.33594C9.33333 2.8055 9.54405 2.2968 9.91912 1.92172ZM4.66667 3.33594C5.03486 3.33594 5.33333 3.63441 5.33333 4.0026V10.3931L6.19526 9.5312C6.45561 9.27085 6.87772 9.27085 7.13807 9.5312C7.39842 9.79155 7.39842 10.2137 7.13807 10.474L5.13807 12.474C4.87772 12.7344 4.45561 12.7344 4.19526 12.474L2.19526 10.474C1.93491 10.2137 1.93491 9.79155 2.19526 9.5312C2.45561 9.27085 2.87772 9.27085 3.13807 9.5312L4 10.3931V4.0026C4 3.63441 4.29848 3.33594 4.66667 3.33594ZM9.33333 10.6693C9.33333 9.5647 10.2288 8.66927 11.3333 8.66927C12.4379 8.66927 13.3333 9.5647 13.3333 10.6693V12.6693C13.3333 13.1997 13.1226 13.7084 12.7475 14.0835C12.3725 14.4586 11.8638 14.6693 11.3333 14.6693H10.3333C9.96514 14.6693 9.66667 14.3708 9.66667 14.0026C9.66667 13.6344 9.96514 13.3359 10.3333 13.3359H11.3333C11.5101 13.3359 11.6797 13.2657 11.8047 13.1407C11.9298 13.0157 12 12.8461 12 12.6693V12.5555C11.7915 12.6292 11.5671 12.6693 11.3333 12.6693C10.2288 12.6693 9.33333 11.7738 9.33333 10.6693ZM12 10.6693C12 10.3011 11.7015 10.0026 11.3333 10.0026C10.9651 10.0026 10.6667 10.3011 10.6667 10.6693C10.6667 11.0375 10.9651 11.3359 11.3333 11.3359C11.7015 11.3359 12 11.0375 12 10.6693Z" fill="#868E96"/>
</svg>
