<svg width="60" height="60" viewBox="0 0 60 60" fill="none" xmlns="http://www.w3.org/2000/svg">
<path opacity="0.21" fill-rule="evenodd" clip-rule="evenodd" d="M0 30V37C0 49.7025 10.2975 60 23 60H30H37C49.7025 60 60 49.7025 60 37V30V23C60 10.2975 49.7025 0 37 0H30H23C10.2975 0 0 10.2975 0 23V30Z" fill="#D50000"/>
<path fill-rule="evenodd" clip-rule="evenodd" d="M16.7592 21.0113C16.6667 21.5013 16.6667 22.0897 16.6667 23.2664V32.6667C16.6667 37.6951 16.6667 40.2092 18.2288 41.7713C19.7909 43.3334 22.3051 43.3334 27.3334 43.3334H32.6667C37.6951 43.3334 40.2092 43.3334 41.7713 41.7713C43.3334 40.2092 43.3334 37.6951 43.3334 32.6667V29.7306C43.3334 26.2208 43.3334 24.4659 42.3075 23.3252C42.2131 23.2203 42.1132 23.1204 42.0083 23.026C40.8676 22.0001 39.1127 22.0001 35.6029 22.0001H35.1047C33.5664 22.0001 32.7973 22.0001 32.0806 21.7958C31.6868 21.6836 31.3073 21.5264 30.9496 21.3273C30.2983 20.965 29.7545 20.4211 28.6667 19.3334L27.9331 18.5997C27.5685 18.2352 27.3862 18.0529 27.1947 17.8941C26.3688 17.2095 25.3556 16.7898 24.2875 16.6899C24.0398 16.6667 23.782 16.6667 23.2664 16.6667C22.0897 16.6667 21.5013 16.6667 21.0113 16.7592C18.8538 17.1663 17.1663 18.8538 16.7592 21.0113ZM27.293 29.293C27.6835 28.9025 28.3167 28.9025 28.7072 29.293L30.0001 30.5859L31.293 29.293C31.6835 28.9025 32.3167 28.9025 32.7072 29.293C33.0977 29.6835 33.0977 30.3167 32.7072 30.7072L31.4143 32.0001L32.7072 33.293C33.0977 33.6835 33.0977 34.3167 32.7072 34.7072C32.3167 35.0977 31.6835 35.0977 31.293 34.7072L30.0001 33.4143L28.7072 34.7072C28.3167 35.0977 27.6835 35.0977 27.293 34.7072C26.9025 34.3167 26.9025 33.6835 27.293 33.293L28.5859 32.0001L27.293 30.7072C26.9025 30.3167 26.9025 29.6835 27.293 29.293Z" fill="#D50000"/>
</svg>
