<svg width="22" height="27" viewBox="0 0 22 27" fill="none" xmlns="http://www.w3.org/2000/svg">
<path d="M18.2979 14.3526C18.3111 13.3271 18.5835 12.3216 19.0897 11.4297C19.5959 10.5377 20.3196 9.78832 21.1932 9.25119C20.6382 8.45851 19.906 7.80617 19.0548 7.34598C18.2035 6.88579 17.2567 6.63042 16.2895 6.60016C14.2263 6.38359 12.2261 7.83474 11.1748 7.83474C10.103 7.83474 8.48431 6.62166 6.74118 6.65752C5.61368 6.69395 4.51485 7.02182 3.55174 7.60918C2.58863 8.19655 1.79409 9.02338 1.24554 10.0091C-1.13061 14.1231 0.641787 20.1694 2.91798 23.4949C4.05681 25.1233 5.38777 26.9422 7.12933 26.8777C8.83354 26.807 9.47003 25.791 11.5271 25.791C13.5652 25.791 14.1623 26.8777 15.9392 26.8367C17.7679 26.807 18.9201 25.2011 20.019 23.5573C20.8372 22.397 21.4669 21.1146 21.8846 19.7577C20.8222 19.3083 19.9155 18.5561 19.2777 17.595C18.6399 16.6338 18.2991 15.5061 18.2979 14.3526Z" fill="white"/>
<path d="M14.942 4.4118C15.9391 3.21484 16.4303 1.67635 16.3114 0.123047C14.788 0.283041 13.3809 1.01109 12.3704 2.16212C11.8763 2.72443 11.4979 3.37861 11.2567 4.08726C11.0156 4.7959 10.9165 5.54512 10.9652 6.29209C11.7271 6.29993 12.4809 6.13478 13.1697 5.80909C13.8586 5.48339 14.4645 5.00563 14.942 4.4118V4.4118Z" fill="white"/>
</svg>
