<svg width="30" height="31" viewBox="0 0 30 31" fill="none" xmlns="http://www.w3.org/2000/svg">
<path d="M13.5132 14.6543L0.90625 28.0054C0.907434 28.0077 0.907434 28.0101 0.908618 28.0125C1.29463 29.4633 2.62199 30.5302 4.19682 30.5302C4.82675 30.5302 5.41761 30.3601 5.9244 30.0624L5.96466 30.0387L20.1547 21.8686L13.5132 14.6543Z" fill="#EB4335"/>
<path d="M26.2669 12.3809L26.255 12.3727L20.1286 8.82812L13.2266 14.9566L20.1523 21.8661L26.2468 18.3582C27.3148 17.7828 28.0395 16.6592 28.0395 15.3631C28.0395 14.0764 27.3243 12.9575 26.2669 12.3809Z" fill="#FABC13"/>
<path d="M0.905102 2.66602C0.829321 2.94485 0.789062 3.23668 0.789062 3.54033V27.1315C0.789062 27.4352 0.828137 27.7282 0.905102 28.0059L13.9454 14.9963L0.905102 2.66602Z" fill="#547DBF"/>
<path d="M13.6056 15.3348L20.131 8.82591L5.95637 0.626226C5.44129 0.317852 4.84096 0.140625 4.19682 0.140625C2.62199 0.140625 1.29345 1.20989 0.90625 2.66197V2.66551L13.6056 15.3348Z" fill="#30A851"/>
</svg>
